<?xml version="1.0" encoding="utf-8"?>
<!-- Generator: Adobe Illustrator 20.1.0, SVG Export Plug-In . SVG Version: 6.00 Build 0)  -->
<svg version="1.1" id="Layer_1" xmlns="http://www.w3.org/2000/svg" xmlns:xlink="http://www.w3.org/1999/xlink" x="0px" y="0px"
	 viewBox="0 0 1600 532.6" style="enable-background:new 0 0 1600 532.6;" xml:space="preserve">
<style type="text/css">
	.st0{fill:none;stroke:#007BFF;stroke-width:4;stroke-miterlimit:10;}
	.st1{fill:#082E51;}
</style>
<g>
	<rect x="206" y="118.6" class="st0" width="538" height="272"/>
	<line class="st0" x1="475" y1="118.6" x2="475" y2="390.6"/>
</g>
<g>
	<rect x="1010" y="118.6" class="st0" width="538" height="272"/>
	<line class="st0" x1="1279" y1="118.6" x2="1279" y2="390.6"/>
</g>
<g>
	<path class="st1" d="M356.2,57.7c0,17.2-7.5,24.7-17.6,24.7s-17.5-7.6-17.5-24.7c0-17.2,7.4-24.8,17.5-24.8S356.2,40.5,356.2,57.7z
		 M350.2,57.7c0-11.9-3.6-19.5-11.6-19.5c-7.9,0-11.5,7.6-11.5,19.5c0,11.8,3.6,19.4,11.5,19.4C346.6,77.1,350.2,69.5,350.2,57.7z"
		/>
</g>
<g>
	<path class="st1" d="M603.5,75.2h11.3V39.1h-1.4l-10,6.7v-6.3l9.9-6.7h7.4v42.4h10.4v5.3h-27.7L603.5,75.2L603.5,75.2z"/>
</g>
<g>
	<path class="st1" d="M42.3,236.9v49.5h-5.8v-49.5H42.3z"/>
	<path class="st1" d="M53.5,243.1v-6.3h6.1v6.3H53.5z M59.4,286.4h-5.8v-34.3h5.8V286.4z"/>
	<path class="st1" d="M83.6,265.5l3.9,0.6c6,1,9.8,4.1,9.8,10.4c0,5.7-4.8,10.8-14.1,10.8c-9.7,0-14.5-4.3-15.3-10.8h5.9
		c0.5,3.9,4,5.8,9.1,5.8c5.2,0,8.6-1.8,8.6-5.6c0-3-1.9-4.6-6.3-5.4l-7.7-1.3c-4.9-0.9-8.2-3.5-8.2-8.7c0-5.7,4.3-10.2,13.6-10.2
		c8.1,0,12.8,3.8,13.6,9.8h-5.8c-0.5-3.3-3.7-4.8-8-4.8c-4.4,0-7.4,1.6-7.4,4.6c0,2.7,1.7,3.7,5.2,4.2L83.6,265.5z"/>
	<path class="st1" d="M122.5,252.1v5h-8.7V276c0,3.5,1.5,5.2,6.1,5.2h2.5v5.2h-2.7c-7.4,0-11.8-2.3-11.8-9.6v-19.7H102v-5h5.9v-10.4
		h5.8v10.4H122.5z"/>
</g>
<g>
	<path class="st1" d="M289.3,255.1v29.3h-5.8v-29.3h-5.9v-5h5.9v-4c0-7.8,4.4-11.2,11.8-11.2h3.3v5h-3.3c-4.6,0-6.1,2.9-6.1,6.4v3.7
		h9.3v5h-9.2V255.1z M305.6,241.1v-6.3h6.1v6.3H305.6z M311.5,284.4h-5.8v-34.3h5.8V284.4z"/>
	<path class="st1" d="M342.5,255.5h-2.9c-6.8,0-11,4.2-11,11.7v17.2h-5.8v-34.3h5.6v4.1h1.5c1.7-2.1,5-4.1,9.9-4.1h2.6L342.5,255.5
		L342.5,255.5z"/>
	<path class="st1" d="M362.9,263.5l3.9,0.6c6,1,9.8,4.1,9.8,10.4c0,5.7-4.8,10.8-14.1,10.8c-9.7,0-14.5-4.3-15.3-10.8h5.9
		c0.5,3.9,4,5.8,9.1,5.8c5.2,0,8.6-1.8,8.6-5.6c0-3-1.9-4.6-6.3-5.4l-7.7-1.3c-4.9-0.9-8.2-3.5-8.2-8.7c0-5.7,4.3-10.2,13.6-10.2
		c8.1,0,12.8,3.8,13.6,9.8H370c-0.5-3.3-3.7-4.8-8-4.8c-4.4,0-7.4,1.6-7.4,4.6c0,2.7,1.7,3.7,5.2,4.2L362.9,263.5z"/>
	<path class="st1" d="M401.7,250.1v5H393V274c0,3.5,1.5,5.2,6.1,5.2h2.5v5.2H399c-7.4,0-11.8-2.3-11.8-9.6v-19.7h-5.9v-5h5.9v-10.4
		h5.8v10.4L401.7,250.1L401.7,250.1z"/>
</g>
<g>
	<path class="st1" d="M509.4,263.5l3.9,0.6c6,1,9.8,4.1,9.8,10.4c0,5.7-4.8,10.8-14.1,10.8c-9.7,0-14.5-4.3-15.3-10.8h5.9
		c0.5,3.9,4,5.8,9.1,5.8s8.6-1.8,8.6-5.6c0-3-1.9-4.6-6.3-5.4l-7.7-1.3c-4.9-0.9-8.2-3.5-8.2-8.7c0-5.7,4.3-10.2,13.6-10.2
		c8.1,0,12.8,3.8,13.6,9.8h-5.8c-0.5-3.3-3.7-4.8-8-4.8c-4.4,0-7.4,1.6-7.4,4.6c0,2.7,1.7,3.7,5.2,4.2L509.4,263.5z"/>
	<path class="st1" d="M561.4,267.2h-26.2c0.2,8.2,3.9,13.1,11,13.1c4.8,0,7.7-2,8.7-5.3h5.9c-1.1,5.9-6.1,10.4-14.6,10.4
		c-10.7,0-16.7-7.8-16.7-18.4s6.1-17.7,16.6-17.7c10.2,0,15.1,7.6,15.3,16V267.2z M535.6,262.3h19.8c-0.3-4.4-3.7-8.1-9.5-8.1
		C539.8,254.2,536.4,258,535.6,262.3z"/>
	<path class="st1" d="M599.5,274c-1.3,6.7-6.5,11.2-14.4,11.2c-10.7,0-16.7-7.9-16.7-18.1c0-10.4,6-18.1,16.7-18.1
		c8.2,0,13.1,4.5,14.2,10.8h-5.8c-1.1-3.5-3.7-5.8-8.5-5.8c-7.8,0-10.9,6.1-10.9,12.9c0,6.9,3.2,13.2,10.9,13.2
		c4.9,0,7.8-2.4,8.7-6.2h5.8V274z"/>
	<path class="st1" d="M639.8,267.2c0,10.2-6.2,18.1-16.9,18.1c-10.8,0-16.9-7.9-16.9-18.1s6.1-18.1,16.9-18.1
		C633.6,249.2,639.8,257.1,639.8,267.2z M634,267.2c0-6.7-3.5-13-11.1-13s-11.1,6.3-11.1,13s3.5,13,11.1,13S634,274,634,267.2z"/>
	<path class="st1" d="M673.6,284.4v-20.6c0-6.3-2.9-9.5-8.7-9.5c-6.1,0-10.2,5.4-10.2,11.4v18.6h-5.8V250h5.6v3.7h1.5
		c1.9-2.7,5.7-4.6,10.4-4.6c8.5,0,13.1,5.2,13.1,13.4v21.8h-5.9V284.4z"/>
	<path class="st1" d="M720.7,234.9v49.5h-5.6v-3.7h-1.5c-1.9,2.4-5.2,4.6-10.7,4.6c-9.5,0-15.1-7.9-15.1-18.1
		c0-10.4,5.6-18.1,15.1-18.1c5.5,0,8.6,2.1,10.5,4.6h1.5v-18.9h5.8V234.9z M715,267.2c0-6.7-3.1-13-10.8-13c-6.9,0-10.6,5.4-10.6,13
		s3.7,13,10.6,13C711.9,280.2,715,274,715,267.2z"/>
</g>
<g>
	<path class="st1" d="M1047.4,215.5l3.9,0.6c6,1,9.8,4.1,9.8,10.4c0,5.7-4.8,10.8-14.1,10.8c-9.7,0-14.5-4.3-15.3-10.8h5.9
		c0.5,3.9,4,5.8,9.1,5.8s8.6-1.8,8.6-5.6c0-3-1.9-4.6-6.3-5.4l-7.7-1.3c-4.9-0.9-8.2-3.5-8.2-8.7c0-5.7,4.3-10.2,13.6-10.2
		c8.1,0,12.8,3.8,13.6,9.8h-5.8c-0.5-3.3-3.7-4.8-8-4.8c-4.4,0-7.4,1.6-7.4,4.6c0,2.7,1.7,3.7,5.2,4.2L1047.4,215.5z"/>
	<path class="st1" d="M1099.4,219.2h-26.2c0.2,8.2,3.9,13.1,11,13.1c4.8,0,7.7-2,8.7-5.3h5.9c-1.1,5.9-6.1,10.4-14.6,10.4
		c-10.7,0-16.7-7.8-16.7-18.4s6.1-17.7,16.6-17.7c10.2,0,15.1,7.6,15.3,16L1099.4,219.2L1099.4,219.2z M1073.6,214.3h19.8
		c-0.3-4.4-3.7-8.1-9.5-8.1C1077.8,206.2,1074.4,210,1073.6,214.3z"/>
	<path class="st1" d="M1137.5,226c-1.3,6.7-6.5,11.2-14.4,11.2c-10.7,0-16.7-7.9-16.7-18.1c0-10.4,6-18.1,16.7-18.1
		c8.2,0,13.1,4.5,14.2,10.8h-5.8c-1.1-3.5-3.7-5.8-8.4-5.8c-7.8,0-10.9,6.1-10.9,12.9c0,6.9,3.2,13.2,10.9,13.2
		c4.9,0,7.8-2.4,8.7-6.2h5.7V226z"/>
	<path class="st1" d="M1177.8,219.2c0,10.2-6.2,18.1-16.9,18.1c-10.8,0-16.9-7.9-16.9-18.1c0-10.2,6.1-18.1,16.9-18.1
		C1171.6,201.2,1177.8,209.1,1177.8,219.2z M1172,219.2c0-6.7-3.5-13-11.1-13s-11.1,6.3-11.1,13s3.5,13,11.1,13S1172,226,1172,219.2
		z"/>
	<path class="st1" d="M1211.6,236.4v-20.6c0-6.3-2.9-9.5-8.7-9.5c-6.1,0-10.2,5.4-10.2,11.4v18.6h-5.8V202h5.6v3.7h1.5
		c1.9-2.7,5.7-4.6,10.4-4.6c8.4,0,13.1,5.2,13.1,13.4v21.8h-5.9V236.4z"/>
	<path class="st1" d="M1258.7,186.9v49.5h-5.6v-3.7h-1.5c-1.9,2.4-5.2,4.6-10.7,4.6c-9.5,0-15.1-7.9-15.1-18.1
		c0-10.4,5.6-18.1,15.1-18.1c5.5,0,8.6,2.1,10.5,4.6h1.5v-18.9L1258.7,186.9L1258.7,186.9z M1253,219.2c0-6.7-3.1-13-10.8-13
		c-6.9,0-10.6,5.4-10.6,13s3.7,13,10.6,13C1249.9,232.2,1253,226,1253,219.2z"/>
	<path class="st1" d="M1068.2,289.1v5h-8.7V313c0,3.5,1.5,5.2,6.1,5.2h2.5v5.2h-2.7c-7.4,0-11.8-2.3-11.8-9.6v-19.7h-5.9v-5h5.9
		v-10.4h5.8v10.4H1068.2z"/>
	<path class="st1" d="M1108.9,306.2c0,10.2-6.2,18.1-16.9,18.1c-10.8,0-16.9-7.9-16.9-18.1s6.1-18.1,16.9-18.1
		C1102.7,288.2,1108.9,296.1,1108.9,306.2z M1103.1,306.2c0-6.7-3.5-13-11.1-13s-11.1,6.3-11.1,13s3.5,13,11.1,13
		C1099.5,319.2,1103.1,313,1103.1,306.2z"/>
	<path class="st1" d="M1142.7,273.9v49.5h-5.8v-49.5H1142.7z"/>
	<path class="st1" d="M1175.7,319.8h-1.5c-2.1,2.7-5.8,4.5-10.7,4.5c-7.9,0-12.3-5.3-12.3-11.2c0-5.5,3.6-11.4,13.2-11.4h11.2v-1.4
		c0-4.2-2.4-7.2-8.4-7.2c-5.1,0-7.7,2-8,5h-5.8c0.5-6.3,5.9-10,13.6-10c8.7,0,14.2,4.2,14.2,11.9v23.4h-5.5L1175.7,319.8
		L1175.7,319.8z M1175.5,309.5v-3.1h-10.3c-5.7,0-8.2,2.5-8.2,6.5c0,3.9,2.9,6.3,8,6.3C1170.7,319.2,1175.5,314.9,1175.5,309.5z"/>
	<path class="st1" d="M1204.6,302.5l3.9,0.6c6,1,9.8,4.1,9.8,10.4c0,5.7-4.8,10.8-14.1,10.8c-9.7,0-14.5-4.3-15.3-10.8h5.9
		c0.5,3.9,4,5.8,9.1,5.8c5.2,0,8.6-1.8,8.6-5.6c0-3-1.9-4.6-6.3-5.4l-7.7-1.3c-4.9-0.9-8.2-3.5-8.2-8.7c0-5.7,4.3-10.2,13.6-10.2
		c8.1,0,12.8,3.8,13.6,9.8h-5.8c-0.5-3.3-3.7-4.8-8-4.8c-4.4,0-7.4,1.6-7.4,4.6c0,2.7,1.7,3.7,5.2,4.2L1204.6,302.5z"/>
	<path class="st1" d="M1243.4,289.1v5h-8.7V313c0,3.5,1.5,5.2,6.1,5.2h2.5v5.2h-2.7c-7.4,0-11.8-2.3-11.8-9.6v-19.7h-5.9v-5h5.9
		v-10.4h5.8v10.4H1243.4z"/>
</g>
<g>
	<path class="st1" d="M1365,234.9v49.5h-5.8v-49.5H1365z"/>
	<path class="st1" d="M1398.1,280.8h-1.5c-2.1,2.7-5.8,4.5-10.7,4.5c-7.9,0-12.3-5.3-12.3-11.2c0-5.5,3.6-11.4,13.2-11.4h11.2v-1.4
		c0-4.2-2.4-7.2-8.4-7.2c-5.1,0-7.7,2-8,5h-5.8c0.5-6.3,5.9-10,13.6-10c8.7,0,14.2,4.2,14.2,11.9v23.4h-5.5L1398.1,280.8
		L1398.1,280.8z M1397.8,270.5v-3.1h-10.3c-5.7,0-8.2,2.5-8.2,6.5c0,3.9,2.9,6.3,8,6.3C1393,280.2,1397.8,275.9,1397.8,270.5z"/>
	<path class="st1" d="M1426.9,263.5l3.9,0.6c6,1,9.8,4.1,9.8,10.4c0,5.7-4.8,10.8-14.1,10.8c-9.7,0-14.5-4.3-15.3-10.8h5.9
		c0.5,3.9,4,5.8,9.1,5.8c5.2,0,8.6-1.8,8.6-5.6c0-3-1.9-4.6-6.3-5.4l-7.7-1.3c-4.9-0.9-8.2-3.5-8.2-8.7c0-5.7,4.3-10.2,13.6-10.2
		c8.1,0,12.8,3.8,13.6,9.8h-5.8c-0.5-3.3-3.7-4.8-8-4.8c-4.4,0-7.4,1.6-7.4,4.6c0,2.7,1.7,3.7,5.2,4.2L1426.9,263.5z"/>
	<path class="st1" d="M1465.8,250.1v5h-8.7V274c0,3.5,1.5,5.2,6.1,5.2h2.5v5.2h-2.7c-7.4,0-11.8-2.3-11.8-9.6v-19.7h-5.9v-5h5.9
		v-10.4h5.8v10.4L1465.8,250.1L1465.8,250.1z"/>
</g>
<g>
	<path class="st1" d="M280.9,470v-5.1h18.6v5.1H280.9z"/>
	<path class="st1" d="M314.3,436.9v49.5h-5.8v-49.5H314.3z"/>
	<path class="st1" d="M355.2,469.2H329c0.2,8.2,3.9,13.1,11,13.1c4.8,0,7.7-2,8.7-5.3h5.9c-1.1,5.9-6.1,10.4-14.6,10.4
		c-10.7,0-16.7-7.8-16.7-18.4s6.1-17.7,16.6-17.7c10.2,0,15.1,7.6,15.3,16L355.2,469.2L355.2,469.2z M329.4,464.3h19.8
		c-0.3-4.4-3.7-8.1-9.5-8.1C333.5,456.2,330.1,460,329.4,464.3z"/>
	<path class="st1" d="M388.9,486.4v-20.6c0-6.3-2.9-9.5-8.7-9.5c-6.1,0-10.2,5.4-10.2,11.4v18.6h-5.8V452h5.6v3.7h1.5
		c1.9-2.7,5.7-4.6,10.4-4.6c8.5,0,13.1,5.2,13.1,13.4v21.8h-5.9V486.4z"/>
</g>
<g>
	<path class="st1" d="M518.5,470v-5.1h18.6v5.1H518.5z"/>
	<path class="st1" d="M551.8,436.9v49.5H546v-49.5H551.8z"/>
	<path class="st1" d="M592.8,469.2h-26.2c0.2,8.2,3.9,13.1,11,13.1c4.8,0,7.7-2,8.7-5.3h5.9c-1.1,5.9-6.1,10.4-14.6,10.4
		c-10.7,0-16.7-7.8-16.7-18.4s6.1-17.7,16.6-17.7c10.2,0,15.1,7.6,15.3,16V469.2z M567,464.3h19.8c-0.3-4.4-3.7-8.1-9.5-8.1
		C571.1,456.2,567.7,460,567,464.3z"/>
	<path class="st1" d="M626.5,486.4v-20.6c0-6.3-2.9-9.5-8.7-9.5c-6.1,0-10.2,5.4-10.2,11.4v18.6h-5.8V452h5.6v3.7h1.5
		c1.9-2.7,5.7-4.6,10.4-4.6c8.5,0,13.1,5.2,13.1,13.4v21.8h-5.9V486.4z"/>
	<path class="st1" d="M658.1,449.7h5v14.8H678v5h-14.9v14.8h-5v-14.8h-14.8v-5h14.8V449.7z"/>
	<path class="st1" d="M687.9,481.1h11.3V445h-1.4l-10,6.7v-6.3l9.9-6.7h7.4v42.4h10.4v5.3h-27.7L687.9,481.1L687.9,481.1z"/>
</g>
<g>
	<path class="st1" d="M1386.2,468.2v-5.1h18.6v5.1H1386.2z"/>
	<path class="st1" d="M1412.2,479.2h11.3v-36.1h-1.4l-10,6.7v-6.3l9.9-6.7h7.4v42.4h10.4v5.3h-27.7L1412.2,479.2L1412.2,479.2z"/>
</g>
<g>
	<path class="st1" d="M1345.8,32.9v49.5h-5.8V32.9H1345.8z"/>
	<path class="st1" d="M1386.8,65.2h-26.2c0.2,8.2,3.9,13.1,11,13.1c4.8,0,7.7-2,8.7-5.3h5.9c-1.1,5.9-6.1,10.4-14.6,10.4
		c-10.7,0-16.7-7.8-16.7-18.4s6.1-17.7,16.6-17.7c10.2,0,15.1,7.6,15.3,16L1386.8,65.2L1386.8,65.2z M1360.9,60.3h19.8
		c-0.3-4.4-3.7-8.1-9.5-8.1C1365.1,52.2,1361.7,56,1360.9,60.3z"/>
	<path class="st1" d="M1420.5,82.4V61.8c0-6.3-2.9-9.5-8.7-9.5c-6.1,0-10.2,5.4-10.2,11.4v18.6h-5.8V48.1h5.6v3.7h1.5
		c1.9-2.7,5.7-4.6,10.4-4.6c8.5,0,13.1,5.2,13.1,13.4v21.8C1426.4,82.4,1420.5,82.4,1420.5,82.4z"/>
	<path class="st1" d="M1434.7,66v-5.1h18.6V66H1434.7z"/>
	<path class="st1" d="M1460.6,77.1h11.3V41h-1.4l-10,6.7v-6.3l9.9-6.7h7.4v42.4h10.4v5.3h-27.7L1460.6,77.1L1460.6,77.1z"/>
</g>
<g>
	<path class="st1" d="M1077.1,32.9v49.5h-5.8V32.9H1077.1z"/>
	<path class="st1" d="M1118.1,65.2h-26.2c0.2,8.2,3.9,13.1,11,13.1c4.8,0,7.7-2,8.7-5.3h5.9c-1.1,5.9-6.1,10.4-14.6,10.4
		c-10.7,0-16.7-7.8-16.7-18.4s6.1-17.7,16.6-17.7c10.2,0,15.1,7.6,15.3,16L1118.1,65.2L1118.1,65.2z M1092.3,60.3h19.8
		c-0.3-4.4-3.7-8.1-9.5-8.1C1096.4,52.2,1093,56,1092.3,60.3z"/>
	<path class="st1" d="M1151.8,82.4V61.8c0-6.3-2.9-9.5-8.7-9.5c-6.1,0-10.2,5.4-10.2,11.4v18.6h-5.8V48.1h5.6v3.7h1.5
		c1.9-2.7,5.7-4.6,10.4-4.6c8.5,0,13.1,5.2,13.1,13.4v21.8C1157.7,82.4,1151.8,82.4,1151.8,82.4z"/>
	<path class="st1" d="M1166,66v-5.1h18.6V66H1166z"/>
	<path class="st1" d="M1191.6,47.8c0.5-9.5,7.4-14.1,15.9-14.1c8.9,0,15.5,5,15.5,14.5c0,6.5-4.9,12.5-10.6,17.2l-12,10.1V77h24.1
		v5.3h-32.8v-6.7l7-5.7c3.8-3.1,8.3-6.9,10.8-9.2c3.3-2.9,7.4-6.8,7.4-12.5c0-6-3.8-9.2-9.6-9.2c-5.4,0-9.1,2.8-9.7,8.8H1191.6z"/>
</g>
<g>
	<path class="st1" d="M1117.6,469.2V464h18.6v5.1h-18.6V469.2z"/>
	<path class="st1" d="M1143.1,451c0.5-9.5,7.4-14.1,15.9-14.1c8.9,0,15.5,5,15.5,14.5c0,6.5-4.9,12.5-10.6,17.2l-12,10.1v1.5h24.1
		v5.3h-32.8v-6.7l7-5.7c3.8-3.1,8.3-6.9,10.8-9.2c3.3-2.9,7.4-6.8,7.4-12.5c0-6-3.8-9.2-9.6-9.2c-5.4,0-9.1,2.8-9.7,8.8L1143.1,451
		L1143.1,451z"/>
</g>
<g>
	<path class="st1" d="M855.9,352.4v-7.9h7.1v7.9H855.9z"/>
	<path class="st1" d="M873.5,352.4v-7.9h7.1v7.9H873.5z"/>
	<path class="st1" d="M891,352.4v-7.9h7.1v7.9H891z"/>
</g>
</svg>
